<svg xmlns="http://www.w3.org/2000/svg" width="512" height="512" viewBox="0 0 512 512" aria-label="Dnyansagar Coaching Classes">
  <defs>
    <linearGradient id="bg" x1="0" y1="0" x2="1" y2="1">
      <stop offset="0" stop-color="#1f2a7c" />
      <stop offset="1" stop-color="#2f3fb0" />
    </linearGradient>
  </defs>
  <rect width="512" height="512" rx="112" fill="url(#bg)" />
  <g fill="#ffffff" transform="translate(0 8)">
    <path d="M256 132 98 206l158 74 158-74-158-74z" opacity="0.96"/>
    <path d="M146 232v84c0 14 10 27 26 35 23 11 53 17 84 17s61-6 84-17c16-8 26-21 26-35v-84l-194 90-26-12z" opacity="0.96"/>
    <path d="M396 213v124a20 20 0 1 1-40 0V229l40-16z" opacity="0.85"/>
    <circle cx="376" cy="352" r="16" opacity="0.85"/>
  </g>
</svg>
